<?xml version="1.0" encoding="UTF-8"?>
<svg width="16px" height="16px" viewBox="0 0 16 16" version="1.1" xmlns="http://www.w3.org/2000/svg" xmlns:xlink="http://www.w3.org/1999/xlink">
    <title>65114D28-8310-4BD0-864A-1289034FEA2A</title>
    <g id="Page-1" stroke="none" stroke-width="1" fill="none" fill-rule="evenodd">
        <g id="Home---long" transform="translate(-171.000000, -208.000000)">
            <g id="Group-6" transform="translate(28.000000, 205.000000)">
                <g id="confirmed-diagnosis" transform="translate(143.000000, 3.000000)">
                    <g id="Frame_-_24px">
                        <rect id="Rectangle" x="-0.00133333333" y="0" width="16.0006667" height="16.0006667"></rect>
                    </g>
                    <g id="Filled_Icons" transform="translate(2.666667, 1.333333)" fill="#1DD1A1" fill-rule="nonzero">
                        <path d="M10.2553333,0.0506666667 C10.0053333,-0.0526666667 9.71933333,0.00466666667 9.52866667,0.195333333 C8.872,0.852 8.22466667,1.18466667 7.60533333,1.18466667 C6.584,1.18466667 5.87066667,0.272666667 5.86666667,0.266666667 C5.74133333,0.1 5.54466667,0.00266666667 5.336,0.00133333333 C5.15266667,-0.012 4.93,0.0986666667 4.802,0.263333333 C4.79533333,0.272666667 4.08266667,1.18466667 3.062,1.18466667 C2.442,1.18466667 1.79533333,0.852 1.138,0.195333333 C0.946666667,0.00466666667 0.66,-0.0526666667 0.411333333,0.0506666667 C0.162666667,0.153333333 0,0.397333333 0,0.666666667 L0,8 C0,10.5386667 4.50866667,12.986 5.02266667,13.2566667 C5.12,13.308 5.22666667,13.3333333 5.33333333,13.3333333 C5.44,13.3333333 5.54666667,13.308 5.644,13.2566667 C6.158,12.986 10.6666667,10.5386667 10.6666667,8 L10.6666667,0.666666667 C10.6666667,0.397333333 10.504,0.153333333 10.2553333,0.0506666667 Z M8,7.33333333 L6,7.33333333 L6,9.33333333 L4.66666667,9.33333333 L4.66666667,7.33333333 L2.66666667,7.33333333 L2.66666667,6 L4.66666667,6 L4.66666667,4 L6,4 L6,6 L8,6 L8,7.33333333 Z" id="Shape"></path>
                    </g>
                </g>
            </g>
        </g>
    </g>
</svg>